HIERARCHY
ROOT Hips
{
  OFFSET 0.000000 0.000000 0.000000
  CHANNELS 6 Xposition Yposition Zposition Xrotation Yrotation Zrotation
  JOINT Spine
  {
    OFFSET 0.762862 23.197727 -6.058858
    CHANNELS 3 Xrotation Yrotation Zrotation
    JOINT Chest
    {
      OFFSET 0.762862 23.197727 -6.058858
      CHANNELS 3 Xrotation Yrotation Zrotation
      JOINT Neck
      {
        OFFSET -0.270074 9.229822 -3.797407
        CHANNELS 3 Xrotation Yrotation Zrotation
        JOINT Head
        {
          OFFSET 0.225285 8.430608 -7.939136
          CHANNELS 3 Xrotation Yrotation Zrotation
          End Site
          {
            OFFSET 0.067585 2.529182 -2.381741
          }
        }
      }
      JOINT LeftShoulder
      {
        OFFSET 17.595006 0.044015 0.996102
        CHANNELS 3 Xrotation Yrotation Zrotation
        JOINT LeftArm
        {
          OFFSET 3.473531 -23.049457 3.982832
          CHANNELS 3 Xrotation Yrotation Zrotation
          JOINT LeftForeArm
          {
            OFFSET 3.218371 -22.980839 -10.241008
            CHANNELS 3 Xrotation Yrotation Zrotation
            JOINT LeftHand
            {
              OFFSET -0.008887 -5.924601 -2.989147
              CHANNELS 3 Xrotation Yrotation Zrotation
              End Site
              {
                OFFSET -0.002666 -1.777380 -0.896744
              }
            }
          }
        }
      }
      JOINT RightShoulder
      {
        OFFSET -17.595006 -0.044015 -0.996102
        CHANNELS 3 Xrotation Yrotation Zrotation
        JOINT RightArm
        {
          OFFSET -5.553442 -24.118242 6.751946
          CHANNELS 3 Xrotation Yrotation Zrotation
          JOINT RightForeArm
          {
            OFFSET -3.099014 -24.977112 -8.059516
            CHANNELS 3 Xrotation Yrotation Zrotation
            JOINT RightHand
            {
              OFFSET 0.298828 -5.701374 -2.573080
              CHANNELS 3 Xrotation Yrotation Zrotation
              End Site
              {
                OFFSET 0.089648 -1.710412 -0.771924
              }
            }
          }
        }
      }
    }
  }
  JOINT LeftUpLeg
  {
    OFFSET 11.990773 -0.614304 0.788698
    CHANNELS 3 Xrotation Yrotation Zrotation
    JOINT LeftLeg
    {
      OFFSET -5.144974 -41.347031 -0.530598
      CHANNELS 3 Xrotation Yrotation Zrotation
      JOINT LeftFoot
      {
        OFFSET 2.709190 -35.138144 18.775504
        CHANNELS 3 Xrotation Yrotation Zrotation
        End Site
        {
          OFFSET 0.812757 -10.541443 5.632651
        }
      }
    }
  }
  JOINT RightUpLeg
  {
    OFFSET -11.990773 0.614304 -0.788698
    CHANNELS 3 Xrotation Yrotation Zrotation
    JOINT RightLeg
    {
      OFFSET 0.284998 -37.357294 5.081156
      CHANNELS 3 Xrotation Yrotation Zrotation
      JOINT RightFoot
      {
        OFFSET 4.690763 -28.563407 28.545631
        CHANNELS 3 Xrotation Yrotation Zrotation
        End Site
        {
          OFFSET 1.407229 -8.569022 8.563689
        }
      }
    }
  }
}
MOTION
Frames: 8
Frame Time: 0.083333
-8.559344 60.000000 -10.585336 5.463662 -0.035218 0.564097 5.463662 -0.035218 0.564097 0.000000 0.000000 0.000000 4.108661 0.830044 1.067447 5.000000 0.000000 0.000000 5.864108 1.563020 5.985908 1.501015 0.610496 -1.183301 -114.147208 18.148075 27.640281 0.000000 0.000000 0.000000 6.954378 -1.171128 1.939772 1.407563 -0.132882 0.290462 -110.279005 -21.174301 -26.907635 0.000000 0.000000 0.000000 3.309517 -0.369998 -0.986876 -3.022774 2.007292 3.939398 0.000000 0.000000 0.000000 7.146762 0.114396 1.043754 17.807467 2.201837 -0.480757 0.000000 0.000000 0.000000
-9.368808 60.000000 -11.865411 10.184637 -0.377007 -0.299579 10.184637 -0.377007 -0.299579 0.000000 0.000000 0.000000 4.268617 1.481961 1.825131 5.000000 0.000000 0.000000 8.776225 2.028029 7.972145 7.662085 1.132479 -1.674865 -112.832344 12.406614 19.609456 0.000000 0.000000 0.000000 6.020081 -1.263022 0.464695 2.242371 -0.149353 0.270199 -109.708415 -21.204584 -27.269453 0.000000 0.000000 0.000000 6.850311 -0.759216 -1.216924 -5.427522 2.278047 4.549710 0.000000 0.000000 0.000000 10.229749 0.162394 1.856506 16.437421 1.478216 -1.117045 0.000000 0.000000 0.000000
-10.089308 60.000000 -12.827060 11.694902 -0.436223 -0.381988 11.694902 -0.436223 -0.381988 0.000000 0.000000 0.000000 5.301705 1.807633 2.274688 5.000000 0.000000 0.000000 11.299942 2.334247 9.518395 13.258857 1.642691 -2.050621 -112.113583 10.429093 16.757186 0.000000 0.000000 0.000000 6.373689 -1.500292 -0.257452 2.947985 -0.176800 0.292192 -109.922852 -21.620849 -27.763064 0.000000 0.000000 0.000000 8.751737 -0.905450 -2.015740 -5.627609 2.432667 4.855281 0.000000 0.000000 0.000000 10.692970 0.147005 1.590794 5.242038 -0.127102 -1.047583 0.000000 0.000000 0.000000
-10.654293 60.000000 -13.337856 12.647801 -0.384939 0.157155 12.647801 -0.384939 0.157155 0.000000 0.000000 0.000000 6.772970 2.225733 2.865945 5.000000 0.000000 0.000000 13.714464 2.534367 10.463301 18.843868 2.101774 -2.263305 -112.544368 9.755905 15.563568 0.000000 0.000000 0.000000 6.697673 -1.728160 -0.967745 3.491634 -0.213534 0.352554 -102.008949 -21.031809 -26.864913 0.000000 0.000000 0.000000 10.008437 -0.945290 -2.961057 -8.499261 1.807426 4.075844 0.000000 0.000000 0.000000 10.661642 0.116752 0.847857 3.311101 -0.387771 -1.001546 0.000000 0.000000 0.000000
-11.098777 60.000000 -13.112865 13.068501 -0.251893 1.178000 13.068501 -0.251893 1.178000 0.000000 0.000000 0.000000 6.676885 2.194115 2.820813 5.000000 0.000000 0.000000 15.326797 2.649287 11.105559 19.055919 2.297353 -2.529956 -116.648972 9.934780 14.635562 0.000000 0.000000 0.000000 6.263974 -1.698360 -1.258729 3.321905 -0.257206 0.487613 -64.076130 -13.353868 -16.766769 0.000000 0.000000 0.000000 11.054729 -0.955346 -3.836322 -13.243367 0.650205 2.524162 0.000000 0.000000 0.000000 10.830844 0.101597 0.490055 0.000000 0.000000 0.000000 0.000000 0.000000 0.000000
-11.816313 60.000000 -12.058582 13.013519 -0.145812 1.893322 13.013519 -0.145812 1.893322 0.000000 0.000000 0.000000 6.647481 2.093698 2.698805 5.000000 0.000000 0.000000 14.997893 2.631784 11.138785 17.586304 2.245252 -2.590978 -121.763860 10.733347 14.376123 0.000000 0.000000 0.000000 7.567271 -1.906058 -0.904457 3.810092 -0.314207 0.604429 -8.417648 -1.961150 -2.653436 0.000000 0.000000 0.000000 11.929077 -1.017700 -3.998156 -11.512706 1.129081 3.102577 0.000000 0.000000 0.000000 10.476743 0.093940 0.335162 0.000000 0.000000 0.000000 0.000000 0.000000 0.000000
-12.663900 60.000000 -10.942773 11.972837 -0.031141 2.306840 11.972837 -0.031141 2.306840 0.000000 0.000000 0.000000 6.571675 2.226413 2.850514 5.000000 0.000000 0.000000 13.835508 2.498409 9.816119 14.205071 1.954203 -2.464670 -123.828856 13.555887 17.718133 0.000000 0.000000 0.000000 9.415395 -2.131437 -0.045414 4.372454 -0.331964 0.604110 -46.109579 -10.574482 -14.301641 0.000000 0.000000 0.000000 12.287928 -1.108003 -3.479541 -8.832089 1.489662 3.410619 0.000000 0.000000 0.000000 9.909326 0.101540 0.529580 0.000000 0.000000 0.000000 0.000000 0.000000 0.000000
-13.540573 60.000000 -11.087628 9.623876 0.131573 2.550245 9.623876 0.131573 2.550245 0.000000 0.000000 0.000000 5.697655 2.311590 2.879537 5.000000 0.000000 0.000000 10.052583 2.145540 8.392559 8.697570 1.470258 -2.191095 -120.610432 18.656590 25.451389 0.000000 0.000000 0.000000 9.096047 -1.896684 0.781308 3.380617 -0.292138 0.578131 -108.100244 -24.343292 -32.954092 0.000000 0.000000 0.000000 10.703396 -1.144861 -1.668589 -5.657863 1.030269 2.292138 0.000000 0.000000 0.000000 9.596399 0.138503 1.278393 0.000000 0.000000 0.000000 0.000000 0.000000 0.000000
